<svg aria-roledescription="er" role="graphics-document document" viewBox="0 0 429.765625 248.3671875" style="max-width: 429.766px; background-color: white;" xmlns:xlink="http://www.w3.org/1999/xlink" xmlns="http://www.w3.org/2000/svg" width="100%" id="my-svg"><style>#my-svg{font-family:"trebuchet ms",verdana,arial,sans-serif;font-size:16px;fill:#000000;}#my-svg .error-icon{fill:#552222;}#my-svg .error-text{fill:#552222;stroke:#552222;}#my-svg .edge-thickness-normal{stroke-width:2px;}#my-svg .edge-thickness-thick{stroke-width:3.5px;}#my-svg .edge-pattern-solid{stroke-dasharray:0;}#my-svg .edge-pattern-dashed{stroke-dasharray:3;}#my-svg .edge-pattern-dotted{stroke-dasharray:2;}#my-svg .marker{fill:#666;stroke:#666;}#my-svg .marker.cross{stroke:#666;}#my-svg svg{font-family:"trebuchet ms",verdana,arial,sans-serif;font-size:16px;}#my-svg .entityBox{fill:#eee;stroke:#999;}#my-svg .attributeBoxOdd{fill:#ffffff;stroke:#999;}#my-svg .attributeBoxEven{fill:#f2f2f2;stroke:#999;}#my-svg .relationshipLabelBox{fill:hsl(-160, 0%, 93.3333333333%);opacity:0.7;background-color:hsl(-160, 0%, 93.3333333333%);}#my-svg .relationshipLabelBox rect{opacity:0.5;}#my-svg .relationshipLine{stroke:#666;}#my-svg .entityTitleText{text-anchor:middle;font-size:18px;fill:#000000;}#my-svg #MD_PARENT_START{fill:#f5f5f5!important;stroke:#666!important;stroke-width:1;}#my-svg #MD_PARENT_END{fill:#f5f5f5!important;stroke:#666!important;stroke-width:1;}#my-svg :root{--mermaid-font-family:"trebuchet ms",verdana,arial,sans-serif;}</style><g/><defs><marker orient="auto" markerHeight="240" markerWidth="190" refY="7" refX="0" id="MD_PARENT_START"><path d="M 18,7 L9,13 L1,7 L9,1 Z"/></marker></defs><defs><marker orient="auto" markerHeight="28" markerWidth="20" refY="7" refX="19" id="MD_PARENT_END"><path d="M 18,7 L9,13 L1,7 L9,1 Z"/></marker></defs><defs><marker orient="auto" markerHeight="18" markerWidth="18" refY="9" refX="0" id="ONLY_ONE_START"><path d="M9,0 L9,18 M15,0 L15,18" fill="none" stroke="gray"/></marker></defs><defs><marker orient="auto" markerHeight="18" markerWidth="18" refY="9" refX="18" id="ONLY_ONE_END"><path d="M3,0 L3,18 M9,0 L9,18" fill="none" stroke="gray"/></marker></defs><defs><marker orient="auto" markerHeight="18" markerWidth="30" refY="9" refX="0" id="ZERO_OR_ONE_START"><circle r="6" cy="9" cx="21" fill="white" stroke="gray"/><path d="M9,0 L9,18" fill="none" stroke="gray"/></marker></defs><defs><marker orient="auto" markerHeight="18" markerWidth="30" refY="9" refX="30" id="ZERO_OR_ONE_END"><circle r="6" cy="9" cx="9" fill="white" stroke="gray"/><path d="M21,0 L21,18" fill="none" stroke="gray"/></marker></defs><defs><marker orient="auto" markerHeight="36" markerWidth="45" refY="18" refX="18" id="ONE_OR_MORE_START"><path d="M0,18 Q 18,0 36,18 Q 18,36 0,18 M42,9 L42,27" fill="none" stroke="gray"/></marker></defs><defs><marker orient="auto" markerHeight="36" markerWidth="45" refY="18" refX="27" id="ONE_OR_MORE_END"><path d="M3,9 L3,27 M9,18 Q27,0 45,18 Q27,36 9,18" fill="none" stroke="gray"/></marker></defs><defs><marker orient="auto" markerHeight="36" markerWidth="57" refY="18" refX="18" id="ZERO_OR_MORE_START"><circle r="6" cy="18" cx="48" fill="white" stroke="gray"/><path d="M0,18 Q18,0 36,18 Q18,36 0,18" fill="none" stroke="gray"/></marker></defs><defs><marker orient="auto" markerHeight="36" markerWidth="57" refY="18" refX="39" id="ZERO_OR_MORE_END"><circle r="6" cy="18" cx="9" fill="white" stroke="gray"/><path d="M21,18 Q39,0 57,18 Q39,36 21,18" fill="none" stroke="gray"/></marker></defs><g transform="translate(20,20 )" id="entity-user-dad033c9-7a45-5f6a-ab5a-b5def405b2a6"><rect height="208.3671875" width="141.015625" y="0" x="0" class="er entityBox"/><text style="dominant-baseline: middle; text-anchor: middle; font-size: 12px;" transform="translate(70.5078125,12)" y="0" x="0" id="text-entity-user-dad033c9-7a45-5f6a-ab5a-b5def405b2a6" class="er entityLabel">user</text><rect height="26" width="53.671875" y="24" x="0" class="er attributeBoxOdd"/><text style="dominant-baseline: middle; font-size: 10.2px;" transform="translate(5,37)" y="0" x="0" id="text-entity-user-dad033c9-7a45-5f6a-ab5a-b5def405b2a6-attr-1-type" class="er entityLabel">Int</text><rect height="26" width="62.34375" y="24" x="53.671875" class="er attributeBoxOdd"/><text style="dominant-baseline: middle; font-size: 10.2px;" transform="translate(58.671875,37)" y="0" x="0" id="text-entity-user-dad033c9-7a45-5f6a-ab5a-b5def405b2a6-attr-1-name" class="er entityLabel">id</text><rect height="26" width="25" y="24" x="116.015625" class="er attributeBoxOdd"/><text style="dominant-baseline: middle; font-size: 10.2px;" transform="translate(121.015625,37)" y="0" x="0" id="text-entity-user-dad033c9-7a45-5f6a-ab5a-b5def405b2a6-attr-1-comment" class="er entityLabel">🗝️</text><rect height="22.091796875" width="53.671875" y="50" x="0" class="er attributeBoxEven"/><text style="dominant-baseline: middle; font-size: 10.2px;" transform="translate(5,61.0458984375)" y="0" x="0" id="text-entity-user-dad033c9-7a45-5f6a-ab5a-b5def405b2a6-attr-2-type" class="er entityLabel">String</text><rect height="22.091796875" width="62.34375" y="50" x="53.671875" class="er attributeBoxEven"/><text style="dominant-baseline: middle; font-size: 10.2px;" transform="translate(58.671875,61.0458984375)" y="0" x="0" id="text-entity-user-dad033c9-7a45-5f6a-ab5a-b5def405b2a6-attr-2-name" class="er entityLabel">username</text><rect height="22.091796875" width="25" y="50" x="116.015625" class="er attributeBoxEven"/><text style="dominant-baseline: middle; font-size: 10.2px;" transform="translate(121.015625,61.0458984375)" y="0" x="0" id="text-entity-user-dad033c9-7a45-5f6a-ab5a-b5def405b2a6-attr-2-comment" class="er entityLabel"/><rect height="22.091796875" width="53.671875" y="72.091796875" x="0" class="er attributeBoxOdd"/><text style="dominant-baseline: middle; font-size: 10.2px;" transform="translate(5,83.1376953125)" y="0" x="0" id="text-entity-user-dad033c9-7a45-5f6a-ab5a-b5def405b2a6-attr-3-type" class="er entityLabel">String</text><rect height="22.091796875" width="62.34375" y="72.091796875" x="53.671875" class="er attributeBoxOdd"/><text style="dominant-baseline: middle; font-size: 10.2px;" transform="translate(58.671875,83.1376953125)" y="0" x="0" id="text-entity-user-dad033c9-7a45-5f6a-ab5a-b5def405b2a6-attr-3-name" class="er entityLabel">password</text><rect height="22.091796875" width="25" y="72.091796875" x="116.015625" class="er attributeBoxOdd"/><text style="dominant-baseline: middle; font-size: 10.2px;" transform="translate(121.015625,83.1376953125)" y="0" x="0" id="text-entity-user-dad033c9-7a45-5f6a-ab5a-b5def405b2a6-attr-3-comment" class="er entityLabel"/><rect height="22.091796875" width="53.671875" y="94.18359375" x="0" class="er attributeBoxEven"/><text style="dominant-baseline: middle; font-size: 10.2px;" transform="translate(5,105.2294921875)" y="0" x="0" id="text-entity-user-dad033c9-7a45-5f6a-ab5a-b5def405b2a6-attr-4-type" class="er entityLabel">String</text><rect height="22.091796875" width="62.34375" y="94.18359375" x="53.671875" class="er attributeBoxEven"/><text style="dominant-baseline: middle; font-size: 10.2px;" transform="translate(58.671875,105.2294921875)" y="0" x="0" id="text-entity-user-dad033c9-7a45-5f6a-ab5a-b5def405b2a6-attr-4-name" class="er entityLabel">fullname</text><rect height="22.091796875" width="25" y="94.18359375" x="116.015625" class="er attributeBoxEven"/><text style="dominant-baseline: middle; font-size: 10.2px;" transform="translate(121.015625,105.2294921875)" y="0" x="0" id="text-entity-user-dad033c9-7a45-5f6a-ab5a-b5def405b2a6-attr-4-comment" class="er entityLabel"/><rect height="22" width="53.671875" y="116.275390625" x="0" class="er attributeBoxOdd"/><text style="dominant-baseline: middle; font-size: 10.2px;" transform="translate(5,127.275390625)" y="0" x="0" id="text-entity-user-dad033c9-7a45-5f6a-ab5a-b5def405b2a6-attr-5-type" class="er entityLabel">Boolean</text><rect height="22" width="62.34375" y="116.275390625" x="53.671875" class="er attributeBoxOdd"/><text style="dominant-baseline: middle; font-size: 10.2px;" transform="translate(58.671875,127.275390625)" y="0" x="0" id="text-entity-user-dad033c9-7a45-5f6a-ab5a-b5def405b2a6-attr-5-name" class="er entityLabel">is_active</text><rect height="22" width="25" y="116.275390625" x="116.015625" class="er attributeBoxOdd"/><text style="dominant-baseline: middle; font-size: 10.2px;" transform="translate(121.015625,127.275390625)" y="0" x="0" id="text-entity-user-dad033c9-7a45-5f6a-ab5a-b5def405b2a6-attr-5-comment" class="er entityLabel"/><rect height="22" width="53.671875" y="138.275390625" x="0" class="er attributeBoxEven"/><text style="dominant-baseline: middle; font-size: 10.2px;" transform="translate(5,149.275390625)" y="0" x="0" id="text-entity-user-dad033c9-7a45-5f6a-ab5a-b5def405b2a6-attr-6-type" class="er entityLabel">DateTime</text><rect height="22" width="62.34375" y="138.275390625" x="53.671875" class="er attributeBoxEven"/><text style="dominant-baseline: middle; font-size: 10.2px;" transform="translate(58.671875,149.275390625)" y="0" x="0" id="text-entity-user-dad033c9-7a45-5f6a-ab5a-b5def405b2a6-attr-6-name" class="er entityLabel">created_at</text><rect height="22" width="25" y="138.275390625" x="116.015625" class="er attributeBoxEven"/><text style="dominant-baseline: middle; font-size: 10.2px;" transform="translate(121.015625,149.275390625)" y="0" x="0" id="text-entity-user-dad033c9-7a45-5f6a-ab5a-b5def405b2a6-attr-6-comment" class="er entityLabel"/><rect height="22.091796875" width="53.671875" y="160.275390625" x="0" class="er attributeBoxOdd"/><text style="dominant-baseline: middle; font-size: 10.2px;" transform="translate(5,171.3212890625)" y="0" x="0" id="text-entity-user-dad033c9-7a45-5f6a-ab5a-b5def405b2a6-attr-7-type" class="er entityLabel">DateTime</text><rect height="22.091796875" width="62.34375" y="160.275390625" x="53.671875" class="er attributeBoxOdd"/><text style="dominant-baseline: middle; font-size: 10.2px;" transform="translate(58.671875,171.3212890625)" y="0" x="0" id="text-entity-user-dad033c9-7a45-5f6a-ab5a-b5def405b2a6-attr-7-name" class="er entityLabel">updated_at</text><rect height="22.091796875" width="25" y="160.275390625" x="116.015625" class="er attributeBoxOdd"/><text style="dominant-baseline: middle; font-size: 10.2px;" transform="translate(121.015625,171.3212890625)" y="0" x="0" id="text-entity-user-dad033c9-7a45-5f6a-ab5a-b5def405b2a6-attr-7-comment" class="er entityLabel"/><rect height="26" width="53.671875" y="182.3671875" x="0" class="er attributeBoxEven"/><text style="dominant-baseline: middle; font-size: 10.2px;" transform="translate(5,195.3671875)" y="0" x="0" id="text-entity-user-dad033c9-7a45-5f6a-ab5a-b5def405b2a6-attr-8-type" class="er entityLabel">DateTime</text><rect height="26" width="62.34375" y="182.3671875" x="53.671875" class="er attributeBoxEven"/><text style="dominant-baseline: middle; font-size: 10.2px;" transform="translate(58.671875,195.3671875)" y="0" x="0" id="text-entity-user-dad033c9-7a45-5f6a-ab5a-b5def405b2a6-attr-8-name" class="er entityLabel">deleted_at</text><rect height="26" width="25" y="182.3671875" x="116.015625" class="er attributeBoxEven"/><text style="dominant-baseline: middle; font-size: 10.2px;" transform="translate(121.015625,195.3671875)" y="0" x="0" id="text-entity-user-dad033c9-7a45-5f6a-ab5a-b5def405b2a6-attr-8-comment" class="er entityLabel">❓</text></g><g transform="translate(261.015625,42.091796875 )" id="entity-device-a7ee64fd-7d5e-529f-ad81-69cdb2623d61"><rect height="164.18359375" width="148.75" y="0" x="0" class="er entityBox"/><text style="dominant-baseline: middle; text-anchor: middle; font-size: 12px;" transform="translate(74.375,12)" y="0" x="0" id="text-entity-device-a7ee64fd-7d5e-529f-ad81-69cdb2623d61" class="er entityLabel">device</text><rect height="26" width="53.671875" y="24" x="0" class="er attributeBoxOdd"/><text style="dominant-baseline: middle; font-size: 10.2px;" transform="translate(5,37)" y="0" x="0" id="text-entity-device-a7ee64fd-7d5e-529f-ad81-69cdb2623d61-attr-1-type" class="er entityLabel">Int</text><rect height="26" width="70.078125" y="24" x="53.671875" class="er attributeBoxOdd"/><text style="dominant-baseline: middle; font-size: 10.2px;" transform="translate(58.671875,37)" y="0" x="0" id="text-entity-device-a7ee64fd-7d5e-529f-ad81-69cdb2623d61-attr-1-name" class="er entityLabel">id</text><rect height="26" width="25" y="24" x="123.75" class="er attributeBoxOdd"/><text style="dominant-baseline: middle; font-size: 10.2px;" transform="translate(128.75,37)" y="0" x="0" id="text-entity-device-a7ee64fd-7d5e-529f-ad81-69cdb2623d61-attr-1-comment" class="er entityLabel">🗝️</text><rect height="22.091796875" width="53.671875" y="50" x="0" class="er attributeBoxEven"/><text style="dominant-baseline: middle; font-size: 10.2px;" transform="translate(5,61.0458984375)" y="0" x="0" id="text-entity-device-a7ee64fd-7d5e-529f-ad81-69cdb2623d61-attr-2-type" class="er entityLabel">String</text><rect height="22.091796875" width="70.078125" y="50" x="53.671875" class="er attributeBoxEven"/><text style="dominant-baseline: middle; font-size: 10.2px;" transform="translate(58.671875,61.0458984375)" y="0" x="0" id="text-entity-device-a7ee64fd-7d5e-529f-ad81-69cdb2623d61-attr-2-name" class="er entityLabel">device_name</text><rect height="22.091796875" width="25" y="50" x="123.75" class="er attributeBoxEven"/><text style="dominant-baseline: middle; font-size: 10.2px;" transform="translate(128.75,61.0458984375)" y="0" x="0" id="text-entity-device-a7ee64fd-7d5e-529f-ad81-69cdb2623d61-attr-2-comment" class="er entityLabel"/><rect height="22" width="53.671875" y="72.091796875" x="0" class="er attributeBoxOdd"/><text style="dominant-baseline: middle; font-size: 10.2px;" transform="translate(5,83.091796875)" y="0" x="0" id="text-entity-device-a7ee64fd-7d5e-529f-ad81-69cdb2623d61-attr-3-type" class="er entityLabel">Boolean</text><rect height="22" width="70.078125" y="72.091796875" x="53.671875" class="er attributeBoxOdd"/><text style="dominant-baseline: middle; font-size: 10.2px;" transform="translate(58.671875,83.091796875)" y="0" x="0" id="text-entity-device-a7ee64fd-7d5e-529f-ad81-69cdb2623d61-attr-3-name" class="er entityLabel">is_active</text><rect height="22" width="25" y="72.091796875" x="123.75" class="er attributeBoxOdd"/><text style="dominant-baseline: middle; font-size: 10.2px;" transform="translate(128.75,83.091796875)" y="0" x="0" id="text-entity-device-a7ee64fd-7d5e-529f-ad81-69cdb2623d61-attr-3-comment" class="er entityLabel"/><rect height="22" width="53.671875" y="94.091796875" x="0" class="er attributeBoxEven"/><text style="dominant-baseline: middle; font-size: 10.2px;" transform="translate(5,105.091796875)" y="0" x="0" id="text-entity-device-a7ee64fd-7d5e-529f-ad81-69cdb2623d61-attr-4-type" class="er entityLabel">DateTime</text><rect height="22" width="70.078125" y="94.091796875" x="53.671875" class="er attributeBoxEven"/><text style="dominant-baseline: middle; font-size: 10.2px;" transform="translate(58.671875,105.091796875)" y="0" x="0" id="text-entity-device-a7ee64fd-7d5e-529f-ad81-69cdb2623d61-attr-4-name" class="er entityLabel">created_at</text><rect height="22" width="25" y="94.091796875" x="123.75" class="er attributeBoxEven"/><text style="dominant-baseline: middle; font-size: 10.2px;" transform="translate(128.75,105.091796875)" y="0" x="0" id="text-entity-device-a7ee64fd-7d5e-529f-ad81-69cdb2623d61-attr-4-comment" class="er entityLabel"/><rect height="22.091796875" width="53.671875" y="116.091796875" x="0" class="er attributeBoxOdd"/><text style="dominant-baseline: middle; font-size: 10.2px;" transform="translate(5,127.1376953125)" y="0" x="0" id="text-entity-device-a7ee64fd-7d5e-529f-ad81-69cdb2623d61-attr-5-type" class="er entityLabel">DateTime</text><rect height="22.091796875" width="70.078125" y="116.091796875" x="53.671875" class="er attributeBoxOdd"/><text style="dominant-baseline: middle; font-size: 10.2px;" transform="translate(58.671875,127.1376953125)" y="0" x="0" id="text-entity-device-a7ee64fd-7d5e-529f-ad81-69cdb2623d61-attr-5-name" class="er entityLabel">updated_at</text><rect height="22.091796875" width="25" y="116.091796875" x="123.75" class="er attributeBoxOdd"/><text style="dominant-baseline: middle; font-size: 10.2px;" transform="translate(128.75,127.1376953125)" y="0" x="0" id="text-entity-device-a7ee64fd-7d5e-529f-ad81-69cdb2623d61-attr-5-comment" class="er entityLabel"/><rect height="26" width="53.671875" y="138.18359375" x="0" class="er attributeBoxEven"/><text style="dominant-baseline: middle; font-size: 10.2px;" transform="translate(5,151.18359375)" y="0" x="0" id="text-entity-device-a7ee64fd-7d5e-529f-ad81-69cdb2623d61-attr-6-type" class="er entityLabel">DateTime</text><rect height="26" width="70.078125" y="138.18359375" x="53.671875" class="er attributeBoxEven"/><text style="dominant-baseline: middle; font-size: 10.2px;" transform="translate(58.671875,151.18359375)" y="0" x="0" id="text-entity-device-a7ee64fd-7d5e-529f-ad81-69cdb2623d61-attr-6-name" class="er entityLabel">deleted_at</text><rect height="26" width="25" y="138.18359375" x="123.75" class="er attributeBoxEven"/><text style="dominant-baseline: middle; font-size: 10.2px;" transform="translate(128.75,151.18359375)" y="0" x="0" id="text-entity-device-a7ee64fd-7d5e-529f-ad81-69cdb2623d61-attr-6-comment" class="er entityLabel">❓</text></g></svg>